<svg width="72" height="73" viewBox="0 0 72 73" fill="none" xmlns="http://www.w3.org/2000/svg">
<path d="M51.841 28.341C52.7197 27.4623 52.7197 26.0377 51.841 25.159C50.9623 24.2803 49.5377 24.2803 48.659 25.159L30.75 43.068L23.341 35.659C22.4623 34.7803 21.0377 34.7803 20.159 35.659C19.2803 36.5377 19.2803 37.9623 20.159 38.841L29.159 47.841C30.0377 48.7197 31.4623 48.7197 32.341 47.841L51.841 28.341Z" fill="#01B957"/>
<path fill-rule="evenodd" clip-rule="evenodd" d="M36 3.5C17.7746 3.5 3 18.2746 3 36.5C3 54.7254 17.7746 69.5 36 69.5C54.2254 69.5 69 54.7254 69 36.5C69 18.2746 54.2254 3.5 36 3.5ZM7.5 36.5C7.5 20.7599 20.2599 8 36 8C51.7401 8 64.5 20.7599 64.5 36.5C64.5 52.2401 51.7401 65 36 65C20.2599 65 7.5 52.2401 7.5 36.5Z" fill="#01B957"/>
</svg>