<svg width="25" height="24" viewBox="0 0 25 24" fill="none" xmlns="http://www.w3.org/2000/svg">
<path d="M2.5 12C2.5 6.47715 6.97715 2 12.5 2C18.0228 2 22.5 6.47715 22.5 12C22.5 17.5228 18.0228 22 12.5 22C6.97715 22 2.5 17.5228 2.5 12Z" fill="#6FD454"/>
<path d="M9.57143 7.02041C9.69286 7.0102 9.79694 7.0398 9.86429 7.15102C10.0153 7.39593 10.1674 7.64083 10.3112 7.89185C10.4776 8.18165 10.6306 8.47962 10.7939 8.77248C10.8357 8.85105 10.8939 8.92248 10.9429 8.99799C10.9878 9.06942 11.0306 9.14289 11.0725 9.21432C11.1582 9.37657 11.1541 9.53984 11.0266 9.66943C10.8449 9.85515 10.6449 10.0276 10.4521 10.2041C10.2908 10.3521 10.1235 10.4939 9.96633 10.645C9.84388 10.7633 9.81225 10.9113 9.8949 11.0674C10.0225 11.3062 10.149 11.545 10.2888 11.7787C10.8072 12.643 11.4694 13.3777 12.3062 13.944C12.6286 14.1634 12.9643 14.3644 13.3031 14.5563C13.6225 14.7369 13.747 14.7063 13.995 14.4297C14.2256 14.1736 14.448 13.9134 14.6776 13.6552C14.7327 13.593 14.7991 13.5379 14.8634 13.4848C14.994 13.3746 15.1368 13.3624 15.2868 13.4379C15.3287 13.4583 15.3736 13.4766 15.4103 13.5032C15.8083 13.7879 16.2532 13.9889 16.6736 14.2307C16.8991 14.3603 17.1185 14.4991 17.3399 14.6318C17.4593 14.7022 17.5073 14.8052 17.4991 14.9471C17.4767 15.3461 17.4103 15.7379 17.1787 16.0746C17.0818 16.2144 16.944 16.3369 16.8052 16.4359C16.4205 16.7053 15.9909 16.8716 15.5338 16.9736C15.1185 17.0665 14.7042 17.0328 14.3062 16.9083C13.5378 16.6716 12.7807 16.4002 12.0837 15.9889C11.4511 15.6144 10.8755 15.1624 10.3429 14.6573C9.66837 14.0154 9.06632 13.3154 8.57958 12.5185C8.26222 12.0011 8.03569 11.444 7.83058 10.8756C7.70609 10.5327 7.58364 10.1929 7.52854 9.82964C7.46527 9.41841 7.50915 9.02248 7.64078 8.63268C7.75915 8.28063 7.90712 7.94389 8.13059 7.64287C8.3061 7.40919 8.52549 7.23776 8.80917 7.16123C9.03673 7.10102 9.26632 7.05306 9.4949 7C9.52449 7.02347 9.54796 7.02347 9.57143 7.02041Z" fill="white"/>
</svg>