<svg width="24" height="18" viewBox="0 0 24 18" fill="none" xmlns="http://www.w3.org/2000/svg">
<path d="M2.15588 7.80633L15.5346 2.44317L21.2801 0.167893C21.2801 0.167893 23.25 -0.644707 23.25 1.30553C23.25 2.11813 22.6755 4.96223 22.4292 7.80633L20.7056 16.5824C20.7056 16.5824 20.7056 17.9638 19.5565 17.9638C18.7357 18.2076 17.012 17.1512 16.6837 16.8262C16.4375 16.5824 12.4157 13.9821 11.0203 12.8444C10.4458 12.6007 10.1996 12.0318 11.0203 11.138C12.9902 9.18775 15.5346 6.91247 17.012 5.53105C17.5866 4.96223 18.4074 3.25577 15.5346 5.28727L7.57305 10.6504C7.57305 10.6504 6.75226 11.2193 5.02862 10.6504L1.00678 9.51279C1.00678 9.51279 -0.0602345 8.61893 2.15588 7.80633Z" fill="#34A6DF"/>
</svg>