<svg width="21" height="23" viewBox="0 0 21 23" fill="none" xmlns="http://www.w3.org/2000/svg">
<path d="M18.6296 2.65979C18.0793 2.15206 15.8557 0.537824 10.9026 0.515894C10.9026 0.515894 5.06173 0.163672 2.21438 2.77543C0.629387 4.36075 0.0718137 6.68043 0.0129993 9.55635C-0.045815 12.4323 -0.121909 17.8219 5.07336 19.2833H5.07834L5.07502 21.5133C5.07502 21.5133 5.04179 22.4161 5.63625 22.6002C6.35531 22.8235 6.77731 22.1373 7.46381 21.3976C7.84062 20.9916 8.36098 20.3951 8.75308 19.9392C12.3062 20.2383 15.0389 19.5548 15.3493 19.4538C16.0667 19.2212 20.1262 18.7011 20.7864 13.3118C21.4679 7.75703 20.4568 4.24346 18.6296 2.65979ZM19.2317 12.9134C18.6744 17.4132 15.3818 17.696 14.7747 17.8907C14.5166 17.9738 12.1165 18.5709 9.09832 18.3738C9.09832 18.3738 6.84942 21.0869 6.14697 21.7924C6.03732 21.9027 5.90839 21.9472 5.82233 21.9253C5.70138 21.8957 5.66815 21.7525 5.66948 21.5432C5.67147 21.2441 5.68875 17.8375 5.68875 17.8375C5.68875 17.8375 5.68609 17.8375 5.68875 17.8375C1.29396 16.6174 1.55015 12.0302 1.59999 9.62812C1.64983 7.22604 2.10107 5.25825 3.44151 3.93477C5.84991 1.75332 10.8112 2.07929 10.8112 2.07929C15.001 2.09757 17.0087 3.35925 17.4742 3.78192C19.02 5.1054 19.8075 8.2724 19.2317 12.9121V12.9134Z" fill="#7360F2"/>
<path fill-rule="evenodd" clip-rule="evenodd" d="M10.9877 7.68545C10.9958 7.53096 11.1276 7.41225 11.2821 7.42031C11.8601 7.45046 12.341 7.62543 12.6835 7.97956C13.0247 8.33234 13.1919 8.82517 13.2213 9.41705C13.229 9.57156 13.1099 9.70303 12.9554 9.7107C12.8009 9.71836 12.6694 9.59932 12.6618 9.4448C12.6366 8.93815 12.4976 8.59323 12.2808 8.36904C12.0653 8.14621 11.7364 8.00501 11.2529 7.97978C11.0984 7.97172 10.9797 7.83995 10.9877 7.68545Z" fill="#7360F2"/>
<path fill-rule="evenodd" clip-rule="evenodd" d="M10.5631 6.17619C10.5744 6.0219 10.7087 5.90597 10.863 5.91726C12.0393 6.00335 12.9861 6.40528 13.6757 7.15811L13.6758 7.15822C14.358 7.90364 14.6822 8.83095 14.6587 9.91863C14.6553 10.0733 14.5272 10.196 14.3726 10.1926C14.2179 10.1893 14.0952 10.0612 14.0986 9.90651C14.1194 8.94731 13.8373 8.16446 13.2626 7.53644C12.6896 6.91103 11.8886 6.55406 10.8221 6.476C10.6678 6.46471 10.5519 6.33048 10.5631 6.17619Z" fill="#7360F2"/>
<path fill-rule="evenodd" clip-rule="evenodd" d="M10.0686 4.74106C10.0697 4.58636 10.196 4.46182 10.3507 4.4629C11.9763 4.47422 13.3503 5.0154 14.4536 6.09087C15.566 7.17534 16.1162 8.65174 16.1301 10.4854C16.1313 10.6401 16.0068 10.7665 15.8521 10.7676C15.6974 10.7688 15.5711 10.6444 15.5699 10.4897C15.5568 8.77144 15.0457 7.45045 14.0625 6.49203C13.0701 5.52462 11.838 5.0335 10.3468 5.02312C10.1921 5.02204 10.0675 4.89576 10.0686 4.74106Z" fill="#7360F2"/>
<path d="M11.323 13.1824C11.323 13.1824 11.7167 13.2156 11.9287 12.9544L12.3421 12.4344C12.5415 12.1765 13.0226 12.0121 13.4938 12.2746C13.8469 12.4759 14.1897 12.6948 14.5209 12.9305C14.8336 13.1604 15.4739 13.6947 15.4759 13.6947C15.7809 13.9523 15.8513 14.3304 15.6437 14.7291C15.6437 14.7315 15.642 14.7355 15.642 14.7374C15.4133 15.134 15.1229 15.4915 14.7817 15.7968C14.7777 15.7988 14.7777 15.8008 14.7741 15.8028C14.4777 16.0504 14.1865 16.1912 13.9005 16.2251C13.8584 16.2325 13.8156 16.2351 13.7729 16.2331C13.6468 16.2343 13.5213 16.215 13.4014 16.1759L13.3921 16.1623C12.9515 16.038 12.2158 15.727 10.9907 15.0511C10.2817 14.6646 9.60677 14.2188 8.97306 13.7183C8.65542 13.4676 8.35244 13.1989 8.06559 12.9135L8.03502 12.883L8.00445 12.8524L7.97388 12.8215C7.96358 12.8115 7.95361 12.8012 7.94331 12.7909C7.65791 12.5041 7.3892 12.2011 7.13852 11.8835C6.63816 11.2498 6.19231 10.575 5.80572 9.86616C5.12986 8.6407 4.81884 7.90569 4.69457 7.46441L4.68094 7.45511C4.64199 7.33518 4.6228 7.20971 4.62412 7.08361C4.6218 7.04093 4.62436 6.99812 4.63176 6.95602C4.66743 6.6707 4.80843 6.37939 5.05476 6.08211C5.05676 6.07846 5.05875 6.07846 5.06074 6.07447C5.36588 5.73332 5.72348 5.44302 6.12006 5.21452C6.12206 5.21452 6.12605 5.21252 6.12837 5.21252C6.52711 5.00485 6.90525 5.07529 7.16244 5.37866C7.16443 5.38066 7.69775 6.02097 7.92669 6.33365C8.16236 6.66518 8.38128 7.00831 8.58262 7.36174C8.84513 7.83258 8.68065 8.31473 8.4228 8.51343L7.90277 8.9268C7.64027 9.13879 7.67482 9.53255 7.67482 9.53255C7.67482 9.53255 8.44506 12.4477 11.323 13.1824Z" fill="#7360F2"/>
</svg>