<svg width="21" height="21" viewBox="0 0 21 21" fill="none" xmlns="http://www.w3.org/2000/svg">
<path d="M17.5764 3.40909C15.7159 1.52479 13.191 0.5 10.5332 0.5C5.0515 0.5 0.566445 4.92975 0.566445 10.4174C0.566445 12.1694 1.03156 13.8554 1.89535 15.376L0.5 20.5L5.78239 19.1116C7.24419 19.905 8.87209 20.3017 10.5332 20.3017C16.015 20.3017 20.5 15.8719 20.5 10.3843C20.5 7.77273 19.4701 5.29339 17.5764 3.40909ZM10.5332 18.6488C9.03821 18.6488 7.57641 18.2521 6.31395 17.4917L6.01495 17.3264L2.89203 18.1529L3.72259 15.1116L3.52326 14.814C2.69269 13.4917 2.2608 12.0041 2.2608 10.4174C2.2608 5.88843 5.98173 2.18595 10.5332 2.18595C12.7591 2.18595 14.8189 3.04545 16.3804 4.59917C17.9419 6.15289 18.8056 8.23554 18.8056 10.4174C18.8056 14.9463 15.1179 18.6488 10.5332 18.6488Z" fill="#25D366"/>
<path d="M15.0847 12.467C14.8521 12.3348 13.6229 11.7398 13.3904 11.6736C13.1578 11.5745 12.9917 11.5414 12.8256 11.8059C12.6595 12.0703 12.1943 12.5993 12.0282 12.7646C11.8953 12.9298 11.7292 12.9629 11.4967 12.8307C11.2641 12.6984 10.4335 12.434 9.50331 11.6075C8.77241 10.9464 8.27408 10.153 8.10796 9.88853C7.97507 9.62406 8.10796 9.49183 8.20763 9.39266C8.3073 9.29348 8.44019 9.09514 8.57308 8.96291C8.70597 8.83067 8.73919 8.69844 8.80564 8.56621C8.9053 8.40092 8.83886 8.26869 8.77241 8.13646C8.70597 8.00423 8.20763 6.78109 8.00829 6.28522C7.80896 5.78935 7.60962 5.85547 7.44351 5.85547C7.31062 5.85547 7.14451 5.85547 6.97839 5.85547C6.81228 5.85547 6.5465 5.92158 6.31394 6.15299C6.08138 6.41745 5.45015 7.01249 5.45015 8.20258C5.45015 9.39266 6.34716 10.5827 6.48006 10.748C6.61295 10.9133 8.24085 13.4257 10.7325 14.4836C11.3306 14.748 11.7957 14.8803 12.1611 15.0125C12.7591 15.2108 13.2907 15.1778 13.7226 15.1117C14.1877 15.0455 15.1844 14.5166 15.4169 13.9216C15.6495 13.3265 15.6163 12.8637 15.5498 12.7315C15.4834 12.6654 15.3173 12.5993 15.0847 12.467Z" fill="#25D366"/>
</svg>